<svg width="108" height="51" viewBox="0 0 108 51" fill="none" xmlns="http://www.w3.org/2000/svg">
<rect width="108" height="51" fill="#F5F5F5"/>
<rect width="108" height="51" fill="#247ED8"/>
<path d="M22.3828 33.9336H23.3828V32.9336H22.3828V33.9336ZM22.3828 37V38H23.3828V37H22.3828ZM3.125 37H2.125V38H3.125V37ZM3.125 33.9336V32.9336H2.125V33.9336H3.125ZM21.7578 11.2969L22.5809 11.8648L22.7578 11.6084V11.2969H21.7578ZM4.02344 37V38H4.5484L4.84653 37.5679L4.02344 37ZM1.69922 37H0.699219V38H1.69922V37ZM1.69922 34.1875L0.876643 33.6188L0.699219 33.8755V34.1875H1.69922ZM19.4141 8.5625V7.5625H18.8897L18.5915 7.99384L19.4141 8.5625ZM21.7578 8.5625H22.7578V7.5625H21.7578V8.5625ZM20.1562 8.5625H21.1562V7.5625H20.1562V8.5625ZM20.1562 11.6484V12.6484H21.1562V11.6484H20.1562ZM1.95312 11.6484H0.953125V12.6484H1.95312V11.6484ZM1.95312 8.5625V7.5625H0.953125V8.5625H1.95312ZM21.3828 33.9336V37H23.3828V33.9336H21.3828ZM22.3828 36H3.125V38H22.3828V36ZM4.125 37V33.9336H2.125V37H4.125ZM3.125 34.9336H22.3828V32.9336H3.125V34.9336ZM20.9347 10.729L3.20035 36.4321L4.84653 37.5679L22.5809 11.8648L20.9347 10.729ZM4.02344 36H1.69922V38H4.02344V36ZM2.69922 37V34.1875H0.699219V37H2.69922ZM2.52179 34.7562L20.2366 9.13116L18.5915 7.99384L0.876643 33.6188L2.52179 34.7562ZM19.4141 9.5625H21.7578V7.5625H19.4141V9.5625ZM20.7578 8.5625V11.2969H22.7578V8.5625H20.7578ZM19.1562 8.5625V11.6484H21.1562V8.5625H19.1562ZM20.1562 10.6484H1.95312V12.6484H20.1562V10.6484ZM2.95312 11.6484V8.5625H0.953125V11.6484H2.95312ZM1.95312 9.5625H20.1562V7.5625H1.95312V9.5625ZM31.0742 36.6484L30.6803 37.5677L30.6925 37.5727L31.0742 36.6484ZM28.0078 34.5195L27.275 35.2L27.2802 35.2055L28.0078 34.5195ZM26.0547 31.2773L25.1152 31.6199L26.0547 31.2773ZM26.1328 21.7656L27.068 22.1197L27.0691 22.1167L26.1328 21.7656ZM28.2031 18.3281L27.4711 17.6469L28.2031 18.3281ZM38.5156 16.2578L38.0857 17.1607L38.0898 17.1626L38.5156 16.2578ZM41.2305 18.4453L40.4305 19.0453L40.4345 19.0507L41.2305 18.4453ZM42.793 21.7266L41.8271 21.9855L41.8277 21.988L42.793 21.7266ZM43.3008 27.4492V28.4492H44.3008V27.4492H43.3008ZM27.5195 27.4492H26.5195V28.4492H27.5195V27.4492ZM27.5195 24.5V23.5H26.5195V24.5H27.5195ZM39.6875 24.5V25.5H40.6875V24.5H39.6875ZM39.6875 24.2266H40.6875V24.1988L40.686 24.1711L39.6875 24.2266ZM39.1016 21.4922L38.1629 21.8373L38.1675 21.8493L39.1016 21.4922ZM32.3438 18.9727L32.7842 19.8704L32.791 19.8671L32.7977 19.8637L32.3438 18.9727ZM29.4141 30.0078L28.4586 30.3029L28.4612 30.3114L28.464 30.3198L29.4141 30.0078ZM30.6445 32.3125L29.8651 32.9391L29.8726 32.9482L30.6445 32.3125ZM32.6172 33.875L32.1761 34.7725L32.182 34.7753L32.6172 33.875ZM40.8398 31.5703L41.462 30.7874L40.6626 30.1522L40.0441 30.9646L40.8398 31.5703ZM43.0273 33.3086L43.8618 33.8597L44.3665 33.0954L43.6495 32.5257L43.0273 33.3086ZM38.6914 36.8047L38.3364 35.8698L38.3324 35.8713L38.6914 36.8047ZM35.0781 36.3906C33.7201 36.3906 32.5175 36.1626 31.456 35.7242L30.6925 37.5727C32.0267 38.1238 33.4934 38.3906 35.0781 38.3906V36.3906ZM31.4681 35.7293C30.4055 35.2739 29.498 34.6423 28.7354 33.8335L27.2802 35.2055C28.2364 36.2197 29.3731 37.0074 30.6803 37.5676L31.4681 35.7293ZM28.7406 33.8391C27.9912 33.032 27.4075 32.0684 26.9942 30.9348L25.1152 31.6199C25.6134 32.9863 26.3317 34.1841 27.275 35.2L28.7406 33.8391ZM26.9942 30.9348C26.5828 29.8065 26.3711 28.5568 26.3711 27.1758H24.3711C24.3711 28.7636 24.6151 30.2482 25.1152 31.6199L26.9942 30.9348ZM26.3711 27.1758V26.3555H24.3711V27.1758H26.3711ZM26.3711 26.3555C26.3711 24.7343 26.6106 23.3277 27.068 22.1197L25.1976 21.4115C24.6394 22.8858 24.3711 24.5391 24.3711 26.3555H26.3711ZM27.0691 22.1167C27.537 20.8691 28.1626 19.8396 28.9352 19.0094L27.4711 17.6469C26.4989 18.6916 25.7443 19.9538 25.1965 21.4145L27.0691 22.1167ZM28.9352 19.0094C29.7198 18.1662 30.5978 17.5397 31.571 17.1161L30.7728 15.2823C29.5324 15.8222 28.4313 16.615 27.4711 17.6469L28.9352 19.0094ZM31.571 17.1161C32.5543 16.6881 33.5644 16.4766 34.6094 16.4766V14.4766C33.2845 14.4766 32.003 14.7468 30.7728 15.2823L31.571 17.1161ZM34.6094 16.4766C36.0068 16.4766 37.1552 16.7176 38.0857 17.1607L38.9456 15.355C37.6886 14.7564 36.2328 14.4766 34.6094 14.4766V16.4766ZM38.0898 17.1626C39.0555 17.6171 39.8297 18.2442 40.4305 19.0453L42.0305 17.8453C41.225 16.7714 40.1892 15.9402 38.9414 15.353L38.0898 17.1626ZM40.4345 19.0507C41.0497 19.8596 41.5179 20.8321 41.8271 21.9855L43.7589 21.4677C43.3909 20.0949 42.8174 18.88 42.0264 17.8399L40.4345 19.0507ZM41.8277 21.988C42.1401 23.1414 42.3008 24.4194 42.3008 25.8281H44.3008C44.3008 24.2681 44.1229 22.8117 43.7582 21.4651L41.8277 21.988ZM42.3008 25.8281V27.4492H44.3008V25.8281H42.3008ZM43.3008 26.4492H27.5195V28.4492H43.3008V26.4492ZM28.5195 27.4492V24.5H26.5195V27.4492H28.5195ZM27.5195 25.5H39.6875V23.5H27.5195V25.5ZM40.6875 24.5V24.2266H38.6875V24.5H40.6875ZM40.686 24.1711C40.6281 23.1293 40.4107 22.1161 40.0356 21.1351L38.1675 21.8493C38.4695 22.6391 38.6427 23.4488 38.689 24.282L40.686 24.1711ZM40.0401 21.1471C39.6536 20.0957 39.0265 19.214 38.1638 18.5238L36.9144 20.0856C37.4839 20.5412 37.8985 21.1179 38.163 21.8373L40.0401 21.1471ZM38.1638 18.5238C37.2172 17.7665 35.9945 17.4453 34.6094 17.4453V19.4453C35.6982 19.4453 36.4287 19.697 36.9144 20.0856L38.1638 18.5238ZM34.6094 17.4453C33.6409 17.4453 32.7288 17.6542 31.8898 18.0816L32.7977 19.8637C33.3389 19.588 33.9373 19.4453 34.6094 19.4453V17.4453ZM31.9033 18.0749C31.0548 18.4911 30.3405 19.1104 29.759 19.9061L31.3738 21.0861C31.7819 20.5277 32.2525 20.1313 32.7842 19.8704L31.9033 18.0749ZM29.759 19.9061C29.1806 20.6977 28.7502 21.6386 28.4511 22.7069L30.377 23.2462C30.6248 22.3614 30.9627 21.6487 31.3738 21.0861L29.759 19.9061ZM28.4511 22.7069C28.1477 23.7905 28.0039 25.0106 28.0039 26.3555H30.0039C30.0039 25.1482 30.1335 24.1158 30.377 23.2462L28.4511 22.7069ZM28.0039 26.3555V27.1758H30.0039V26.3555H28.0039ZM28.0039 27.1758C28.0039 28.2703 28.1533 29.3144 28.4586 30.3029L30.3695 29.7127C30.1279 28.9304 30.0039 28.0865 30.0039 27.1758H28.0039ZM28.464 30.3198C28.785 31.2975 29.2503 32.1742 29.8652 32.9391L31.4239 31.6859C30.9711 31.1227 30.616 30.4629 30.3642 29.6958L28.464 30.3198ZM29.8726 32.9482C30.5094 33.7215 31.2796 34.3318 32.1761 34.7724L33.0583 32.9776C32.4184 32.663 31.8734 32.2316 31.4165 31.6768L29.8726 32.9482ZM32.182 34.7753C33.1169 35.2272 34.1544 35.4414 35.2734 35.4414V33.4414C34.4133 33.4414 33.68 33.278 33.0524 32.9747L32.182 34.7753ZM35.2734 35.4414C36.6849 35.4414 37.9504 35.1528 39.0226 34.5221L38.0086 32.7982C37.31 33.2092 36.414 33.4414 35.2734 33.4414V35.4414ZM39.0226 34.5221C40.0274 33.9311 40.8982 33.1447 41.6355 32.176L40.0441 30.9646C39.4534 31.7407 38.7747 32.3476 38.0086 32.7982L39.0226 34.5221ZM40.2177 32.3532L42.4052 34.0915L43.6495 32.5257L41.462 30.7874L40.2177 32.3532ZM42.1929 32.7575C41.7911 33.3659 41.2716 33.9588 40.6247 34.5338L41.9534 36.0287C42.7128 35.3537 43.3521 34.6315 43.8618 33.8597L42.1929 32.7575ZM40.6247 34.5338C40.0264 35.0656 39.2703 35.5152 38.3364 35.8698L39.0464 37.7395C40.1698 37.313 41.1454 36.7469 41.9534 36.0287L40.6247 34.5338ZM38.3324 35.8713C37.4585 36.2075 36.3815 36.3906 35.0781 36.3906V38.3906C36.5612 38.3906 37.8931 38.1831 39.0504 37.738L38.3324 35.8713ZM51.1328 20.3789H52.1328V20.3573L52.1319 20.3357L51.1328 20.3789ZM51.1328 37V38H52.1328V37H51.1328ZM47.5195 37H46.5195V38H47.5195V37ZM47.5195 15.8672V14.8672H46.5195V15.8672H47.5195ZM50.9375 15.8672L51.9366 15.8239L51.8951 14.8672H50.9375V15.8672ZM50.2734 25.6328L50.2345 26.6321L51.2734 26.6725V25.6328H50.2734ZM48.7695 25.5742L47.7696 25.5652L47.7608 26.5357L48.7306 26.5735L48.7695 25.5742ZM49.4141 21.5703L50.3607 21.8926L50.3617 21.8895L49.4141 21.5703ZM53.8672 16.2383L54.2963 17.1416L54.301 17.1393L53.8672 16.2383ZM60.1758 15.9062L59.8507 16.852L59.864 16.8564L60.1758 15.9062ZM62.3047 17.2344L61.5823 17.926L61.59 17.9338L62.3047 17.2344ZM63.6719 19.6172L62.7194 19.922L62.7207 19.9257L63.6719 19.6172ZM64.1406 37V38H65.1406V37H64.1406ZM60.5078 37H59.5078V38H60.5078V37ZM60.0195 20.457L59.1183 20.8903L59.1216 20.8972L60.0195 20.457ZM58.5938 18.9922L58.1465 19.8866L58.1541 19.8904L58.1616 19.894L58.5938 18.9922ZM53.8281 19.0898L53.3747 18.1985L53.3683 18.2018L53.8281 19.0898ZM51.9336 20.6523L51.1542 20.0257L51.1467 20.0352L51.9336 20.6523ZM50.7031 22.9375L49.7588 22.6084L49.7559 22.6169L50.7031 22.9375ZM50.1328 20.3789V37H52.1328V20.3789H50.1328ZM51.1328 36H47.5195V38H51.1328V36ZM48.5195 37V15.8672H46.5195V37H48.5195ZM47.5195 16.8672H50.9375V14.8672H47.5195V16.8672ZM49.9384 15.9104L50.1337 20.4222L52.1319 20.3357L51.9366 15.8239L49.9384 15.9104ZM50.3124 24.6336L48.8085 24.575L48.7306 26.5735L50.2345 26.6321L50.3124 24.6336ZM49.7695 25.5832C49.7817 24.2321 49.9822 23.0045 50.3607 21.8926L48.4674 21.248C48.0126 22.5841 47.7834 24.0257 47.7696 25.5652L49.7695 25.5832ZM50.3617 21.8895C50.7433 20.7569 51.2726 19.7934 51.9419 18.9857L50.4019 17.7096C49.5607 18.7248 48.9182 19.9098 48.4664 21.2511L50.3617 21.8895ZM51.9419 18.9857C52.6067 18.1834 53.3897 17.5721 54.2962 17.1416L53.4381 15.335C52.2613 15.894 51.2475 16.689 50.4019 17.7096L51.9419 18.9857ZM54.301 17.1393C55.2085 16.7023 56.2237 16.4766 57.3633 16.4766V14.4766C55.9508 14.4766 54.6353 14.7586 53.4334 15.3373L54.301 17.1393ZM57.3633 16.4766C58.314 16.4766 59.1391 16.6073 59.8507 16.8519L60.5009 14.9606C59.5458 14.6323 58.4959 14.4766 57.3633 14.4766V16.4766ZM59.864 16.8564C60.547 17.0805 61.1141 17.4368 61.5824 17.9259L63.027 16.5428C62.3234 15.808 61.4712 15.2788 60.4876 14.9561L59.864 16.8564ZM61.59 17.9338C62.0606 18.4147 62.4451 19.0647 62.7195 19.922L64.6243 19.3124C64.2736 18.2166 63.7467 17.278 63.0194 16.5349L61.59 17.9338ZM62.7207 19.9257C62.9913 20.76 63.1406 21.8275 63.1406 23.1523H65.1406C65.1406 21.6907 64.9775 20.4014 64.6231 19.3087L62.7207 19.9257ZM63.1406 23.1523V37H65.1406V23.1523H63.1406ZM64.1406 36H60.5078V38H64.1406V36ZM61.5078 37V23.1133H59.5078V37H61.5078ZM61.5078 23.1133C61.5078 21.9233 61.3351 20.8689 60.9175 20.0169L59.1216 20.8972C59.355 21.3732 59.5078 22.0898 59.5078 23.1133H61.5078ZM60.9208 20.0237C60.5056 19.1601 59.8737 18.4966 59.0259 18.0904L58.1616 19.894C58.5638 20.0867 58.8825 20.3998 59.1183 20.8903L60.9208 20.0237ZM59.041 18.0978C58.2414 17.698 57.3103 17.5234 56.2891 17.5234V19.5234C57.0908 19.5234 57.6961 19.6614 58.1465 19.8866L59.041 18.0978ZM56.2891 17.5234C55.2457 17.5234 54.2682 17.7439 53.3747 18.1986L54.2816 19.9811C54.8724 19.6805 55.5355 19.5234 56.2891 19.5234V17.5234ZM53.3683 18.2018C52.5109 18.6458 51.7719 19.2575 51.1542 20.0258L52.713 21.2789C53.163 20.7191 53.687 20.2891 54.288 19.9778L53.3683 18.2018ZM51.1467 20.0352C50.5528 20.7925 50.0917 21.6532 49.7588 22.6084L51.6474 23.2666C51.9135 22.5031 52.2727 21.8403 52.7204 21.2695L51.1467 20.0352ZM49.7559 22.6169C49.4323 23.5729 49.2734 24.5802 49.2734 25.6328H51.2734C51.2734 24.7843 51.401 23.9948 51.6503 23.2581L49.7559 22.6169ZM85.3711 34.0312H86.3711V33.0312H85.3711V34.0312ZM85.3711 37V38H86.3711V37H85.3711ZM70 37H69V38H70V37ZM70 34.0312V33.0312H69V34.0312H70ZM84.8047 18.4258L85.6036 19.0273L85.8047 18.7601V18.4258H84.8047ZM70.8203 37V38H71.3192L71.6192 37.6015L70.8203 37ZM68.6133 37H67.6133V38H68.6133V37ZM68.6133 34.3438L67.8139 33.7429L67.6133 34.0099V34.3438H68.6133ZM82.5 15.8672V14.8672H82.0006L81.7006 15.2664L82.5 15.8672ZM84.8047 15.8672H85.8047V14.8672H84.8047V15.8672ZM83.2031 15.8672H84.2031V14.8672H83.2031V15.8672ZM83.2031 18.8555V19.8555H84.2031V18.8555H83.2031ZM68.7695 18.8555H67.7695V19.8555H68.7695V18.8555ZM68.7695 15.8672V14.8672H67.7695V15.8672H68.7695ZM84.3711 34.0312V37H86.3711V34.0312H84.3711ZM85.3711 36H70V38H85.3711V36ZM71 37V34.0312H69V37H71ZM70 35.0312H85.3711V33.0312H70V35.0312ZM84.0058 17.8243L70.0214 36.3985L71.6192 37.6015L85.6036 19.0273L84.0058 17.8243ZM70.8203 36H68.6133V38H70.8203V36ZM69.6133 37V34.3438H67.6133V37H69.6133ZM69.4127 34.9446L83.2994 16.468L81.7006 15.2664L67.8139 33.7429L69.4127 34.9446ZM82.5 16.8672H84.8047V14.8672H82.5V16.8672ZM83.8047 15.8672V18.4258H85.8047V15.8672H83.8047ZM82.2031 15.8672V18.8555H84.2031V15.8672H82.2031ZM83.2031 17.8555H68.7695V19.8555H83.2031V17.8555ZM69.7695 18.8555V15.8672H67.7695V18.8555H69.7695ZM68.7695 16.8672H83.2031V14.8672H68.7695V16.8672ZM93.9258 36.6484L93.5318 37.5677L93.544 37.5727L93.9258 36.6484ZM90.8594 34.5195L90.1266 35.2L90.1318 35.2055L90.8594 34.5195ZM88.9062 31.2773L87.9667 31.6199L88.9062 31.2773ZM88.9844 21.7656L89.9196 22.1197L89.9207 22.1167L88.9844 21.7656ZM91.0547 18.3281L90.3226 17.6469L91.0547 18.3281ZM101.367 16.2578L100.937 17.1607L100.941 17.1626L101.367 16.2578ZM104.082 18.4453L103.282 19.0453L103.286 19.0507L104.082 18.4453ZM105.645 21.7266L104.679 21.9855L104.679 21.988L105.645 21.7266ZM106.152 27.4492V28.4492H107.152V27.4492H106.152ZM90.3711 27.4492H89.3711V28.4492H90.3711V27.4492ZM90.3711 24.5V23.5H89.3711V24.5H90.3711ZM102.539 24.5V25.5H103.539V24.5H102.539ZM102.539 24.2266H103.539V24.1988L103.538 24.1711L102.539 24.2266ZM101.953 21.4922L101.014 21.8373L101.019 21.8493L101.953 21.4922ZM95.1953 18.9727L95.6357 19.8704L95.6425 19.8671L95.6492 19.8637L95.1953 18.9727ZM92.2656 30.0078L91.3102 30.3029L91.3128 30.3114L91.3155 30.3198L92.2656 30.0078ZM93.4961 32.3125L92.7167 32.9391L92.7242 32.9482L93.4961 32.3125ZM95.4688 33.875L95.0276 34.7725L95.0336 34.7753L95.4688 33.875ZM103.691 31.5703L104.314 30.7874L103.514 30.1522L102.896 30.9646L103.691 31.5703ZM105.879 33.3086L106.713 33.8597L107.218 33.0954L106.501 32.5257L105.879 33.3086ZM101.543 36.8047L101.188 35.8698L101.184 35.8713L101.543 36.8047ZM97.9297 36.3906C96.5717 36.3906 95.3691 36.1626 94.3075 35.7242L93.544 37.5727C94.8783 38.1238 96.345 38.3906 97.9297 38.3906V36.3906ZM94.3197 35.7293C93.2571 35.2739 92.3495 34.6423 91.587 33.8335L90.1318 35.2055C91.088 36.2197 92.2247 37.0074 93.5319 37.5676L94.3197 35.7293ZM91.5922 33.8391C90.8428 33.032 90.259 32.0684 89.8458 30.9348L87.9667 31.6199C88.4649 32.9863 89.1833 34.1841 90.1266 35.2L91.5922 33.8391ZM89.8458 30.9348C89.4344 29.8065 89.2227 28.5568 89.2227 27.1758H87.2227C87.2227 28.7636 87.4666 30.2482 87.9667 31.6199L89.8458 30.9348ZM89.2227 27.1758V26.3555H87.2227V27.1758H89.2227ZM89.2227 26.3555C89.2227 24.7343 89.4622 23.3277 89.9196 22.1197L88.0492 21.4115C87.4909 22.8858 87.2227 24.5391 87.2227 26.3555H89.2227ZM89.9207 22.1167C90.3886 20.8691 91.0141 19.8396 91.7868 19.0094L90.3226 17.6469C89.3504 18.6916 88.5958 19.9538 88.048 21.4145L89.9207 22.1167ZM91.7868 19.0094C92.5713 18.1662 93.4494 17.5397 94.4226 17.1161L93.6243 15.2823C92.384 15.8222 91.2828 16.615 90.3226 17.6469L91.7868 19.0094ZM94.4226 17.1161C95.4058 16.6881 96.416 16.4766 97.4609 16.4766V14.4766C96.1361 14.4766 94.8546 14.7468 93.6243 15.2823L94.4226 17.1161ZM97.4609 16.4766C98.8584 16.4766 100.007 16.7176 100.937 17.1607L101.797 15.355C100.54 14.7564 99.0843 14.4766 97.4609 14.4766V16.4766ZM100.941 17.1626C101.907 17.6171 102.681 18.2442 103.282 19.0453L104.882 17.8453C104.077 16.7714 103.041 15.9402 101.793 15.353L100.941 17.1626ZM103.286 19.0507C103.901 19.8596 104.369 20.8321 104.679 21.9855L106.61 21.4677C106.242 20.0949 105.669 18.88 104.878 17.8399L103.286 19.0507ZM104.679 21.988C104.992 23.1414 105.152 24.4194 105.152 25.8281H107.152C107.152 24.2681 106.974 22.8117 106.61 21.4651L104.679 21.988ZM105.152 25.8281V27.4492H107.152V25.8281H105.152ZM106.152 26.4492H90.3711V28.4492H106.152V26.4492ZM91.3711 27.4492V24.5H89.3711V27.4492H91.3711ZM90.3711 25.5H102.539V23.5H90.3711V25.5ZM103.539 24.5V24.2266H101.539V24.5H103.539ZM103.538 24.1711C103.48 23.1293 103.262 22.1161 102.887 21.1351L101.019 21.8493C101.321 22.6391 101.494 23.4488 101.541 24.282L103.538 24.1711ZM102.892 21.1471C102.505 20.0957 101.878 19.214 101.015 18.5238L99.7659 20.0856C100.335 20.5412 100.75 21.1179 101.015 21.8373L102.892 21.1471ZM101.015 18.5238C100.069 17.7665 98.846 17.4453 97.4609 17.4453V19.4453C98.5498 19.4453 99.2802 19.697 99.7659 20.0856L101.015 18.5238ZM97.4609 17.4453C96.4924 17.4453 95.5804 17.6542 94.7414 18.0816L95.6492 19.8637C96.1904 19.588 96.7888 19.4453 97.4609 19.4453V17.4453ZM94.7549 18.0749C93.9064 18.4911 93.1921 19.1104 92.6106 19.9061L94.2254 21.0861C94.6335 20.5277 95.104 20.1313 95.6357 19.8704L94.7549 18.0749ZM92.6106 19.9061C92.0321 20.6977 91.6018 21.6386 91.3027 22.7069L93.2286 23.2462C93.4763 22.3614 93.8142 21.6487 94.2254 21.0861L92.6106 19.9061ZM91.3027 22.7069C90.9993 23.7905 90.8555 25.0106 90.8555 26.3555H92.8555C92.8555 25.1482 92.9851 24.1158 93.2286 23.2462L91.3027 22.7069ZM90.8555 26.3555V27.1758H92.8555V26.3555H90.8555ZM90.8555 27.1758C90.8555 28.2703 91.0049 29.3144 91.3102 30.3029L93.2211 29.7127C92.9795 28.9304 92.8555 28.0865 92.8555 27.1758H90.8555ZM91.3155 30.3198C91.6366 31.2975 92.1018 32.1742 92.7167 32.9391L94.2755 31.6859C93.8226 31.1227 93.4676 30.4629 93.2157 29.6958L91.3155 30.3198ZM92.7242 32.9482C93.361 33.7215 94.1311 34.3318 95.0276 34.7724L95.9099 32.9776C95.2699 32.663 94.725 32.2316 94.268 31.6768L92.7242 32.9482ZM95.0336 34.7753C95.9684 35.2272 97.0059 35.4414 98.125 35.4414V33.4414C97.2649 33.4414 96.5316 33.278 95.9039 32.9747L95.0336 34.7753ZM98.125 35.4414C99.5365 35.4414 100.802 35.1528 101.874 34.5221L100.86 32.7982C100.162 33.2092 99.2656 33.4414 98.125 33.4414V35.4414ZM101.874 34.5221C102.879 33.9311 103.75 33.1447 104.487 32.176L102.896 30.9646C102.305 31.7407 101.626 32.3476 100.86 32.7982L101.874 34.5221ZM103.069 32.3532L105.257 34.0915L106.501 32.5257L104.314 30.7874L103.069 32.3532ZM105.044 32.7575C104.643 33.3659 104.123 33.9588 103.476 34.5338L104.805 36.0287C105.564 35.3537 106.204 34.6315 106.713 33.8597L105.044 32.7575ZM103.476 34.5338C102.878 35.0656 102.122 35.5152 101.188 35.8698L101.898 37.7395C103.021 37.313 103.997 36.7469 104.805 36.0287L103.476 34.5338ZM101.184 35.8713C100.31 36.2075 99.233 36.3906 97.9297 36.3906V38.3906C99.4128 38.3906 100.745 38.1831 101.902 37.738L101.184 35.8713Z" fill="white"/>
<path d="M36.8066 48H35.1074V41.0977C35.1074 40.6172 35.2012 40.2129 35.3887 39.8848C35.5801 39.5527 35.8477 39.3027 36.1914 39.1348C36.5391 38.9629 36.9512 38.877 37.4277 38.877C37.584 38.877 37.7344 38.8887 37.8789 38.9121C38.0234 38.9316 38.1641 38.957 38.3008 38.9883L38.2832 40.2598C38.209 40.2402 38.1309 40.2266 38.0488 40.2188C37.9668 40.2109 37.8711 40.207 37.7617 40.207C37.5586 40.207 37.3848 40.2422 37.2402 40.3125C37.0996 40.3789 36.9922 40.4785 36.918 40.6113C36.8438 40.7441 36.8066 40.9062 36.8066 41.0977V48ZM38.0723 41.6602V42.8555H34.1641V41.6602H38.0723ZM38.6875 44.8945V44.7715C38.6875 44.3066 38.7539 43.8789 38.8867 43.4883C39.0195 43.0938 39.2129 42.752 39.4668 42.4629C39.7207 42.1738 40.0332 41.9492 40.4043 41.7891C40.7754 41.625 41.2012 41.543 41.6816 41.543C42.1621 41.543 42.5898 41.625 42.9648 41.7891C43.3398 41.9492 43.6543 42.1738 43.9082 42.4629C44.166 42.752 44.3613 43.0938 44.4941 43.4883C44.627 43.8789 44.6934 44.3066 44.6934 44.7715V44.8945C44.6934 45.3555 44.627 45.7832 44.4941 46.1777C44.3613 46.5684 44.166 46.9102 43.9082 47.2031C43.6543 47.4922 43.3418 47.7168 42.9707 47.877C42.5996 48.0371 42.1738 48.1172 41.6934 48.1172C41.2129 48.1172 40.7852 48.0371 40.4102 47.877C40.0391 47.7168 39.7246 47.4922 39.4668 47.2031C39.2129 46.9102 39.0195 46.5684 38.8867 46.1777C38.7539 45.7832 38.6875 45.3555 38.6875 44.8945ZM40.375 44.7715V44.8945C40.375 45.1602 40.3984 45.4082 40.4453 45.6387C40.4922 45.8691 40.5664 46.0723 40.668 46.248C40.7734 46.4199 40.9102 46.5547 41.0781 46.6523C41.2461 46.75 41.4512 46.7988 41.6934 46.7988C41.9277 46.7988 42.1289 46.75 42.2969 46.6523C42.4648 46.5547 42.5996 46.4199 42.7012 46.248C42.8027 46.0723 42.877 45.8691 42.9238 45.6387C42.9746 45.4082 43 45.1602 43 44.8945V44.7715C43 44.5137 42.9746 44.2715 42.9238 44.0449C42.877 43.8145 42.8008 43.6113 42.6953 43.4355C42.5938 43.2559 42.459 43.1152 42.291 43.0137C42.123 42.9121 41.9199 42.8613 41.6816 42.8613C41.4434 42.8613 41.2402 42.9121 41.0723 43.0137C40.9082 43.1152 40.7734 43.2559 40.668 43.4355C40.5664 43.6113 40.4922 43.8145 40.4453 44.0449C40.3984 44.2715 40.375 44.5137 40.375 44.7715ZM47.418 43.043V48H45.7305V41.6602H47.3184L47.418 43.043ZM49.3281 41.6191L49.2988 43.1836C49.2168 43.1719 49.1172 43.1621 49 43.1543C48.8867 43.1426 48.7832 43.1367 48.6895 43.1367C48.4512 43.1367 48.2441 43.168 48.0684 43.2305C47.8965 43.2891 47.752 43.377 47.6348 43.4941C47.5215 43.6113 47.4355 43.7539 47.377 43.9219C47.3223 44.0898 47.291 44.2812 47.2832 44.4961L46.9434 44.3906C46.9434 43.9805 46.9844 43.6035 47.0664 43.2598C47.1484 42.9121 47.2676 42.6094 47.4238 42.3516C47.584 42.0938 47.7793 41.8945 48.0098 41.7539C48.2402 41.6133 48.5039 41.543 48.8008 41.543C48.8945 41.543 48.9902 41.5508 49.0879 41.5664C49.1855 41.5781 49.2656 41.5957 49.3281 41.6191ZM58.1641 45.1699H59.916C59.8809 45.7441 59.7227 46.2539 59.4414 46.6992C59.1641 47.1445 58.7754 47.4922 58.2754 47.7422C57.7793 47.9922 57.1816 48.1172 56.4824 48.1172C55.9355 48.1172 55.4453 48.0234 55.0117 47.8359C54.5781 47.6445 54.207 47.3711 53.8984 47.0156C53.5938 46.6602 53.3613 46.2305 53.2012 45.7266C53.041 45.2227 52.9609 44.6582 52.9609 44.0332V43.4414C52.9609 42.8164 53.043 42.252 53.207 41.748C53.375 41.2402 53.6133 40.8086 53.9219 40.4531C54.2344 40.0977 54.6074 39.8242 55.041 39.6328C55.4746 39.4414 55.959 39.3457 56.4941 39.3457C57.2051 39.3457 57.8047 39.4746 58.293 39.7324C58.7852 39.9902 59.166 40.3457 59.4355 40.7988C59.709 41.252 59.873 41.7676 59.9277 42.3457H58.1699C58.1504 42.002 58.082 41.7109 57.9648 41.4727C57.8477 41.2305 57.6699 41.0488 57.4316 40.9277C57.1973 40.8027 56.8848 40.7402 56.4941 40.7402C56.2012 40.7402 55.9453 40.7949 55.7266 40.9043C55.5078 41.0137 55.3242 41.1797 55.1758 41.4023C55.0273 41.625 54.916 41.9062 54.8418 42.2461C54.7715 42.582 54.7363 42.9766 54.7363 43.4297V44.0332C54.7363 44.4746 54.7695 44.8633 54.8359 45.1992C54.9023 45.5312 55.0039 45.8125 55.1406 46.043C55.2812 46.2695 55.4609 46.4414 55.6797 46.5586C55.9023 46.6719 56.1699 46.7285 56.4824 46.7285C56.8496 46.7285 57.1523 46.6699 57.3906 46.5527C57.6289 46.4355 57.8105 46.2617 57.9355 46.0312C58.0645 45.8008 58.1406 45.5137 58.1641 45.1699ZM64.7148 46.4824V41.6602H66.4023V48H64.8145L64.7148 46.4824ZM64.9023 45.1816L65.4004 45.1699C65.4004 45.5918 65.3516 45.9844 65.2539 46.3477C65.1562 46.707 65.0098 47.0195 64.8145 47.2852C64.6191 47.5469 64.373 47.752 64.0762 47.9004C63.7793 48.0449 63.4297 48.1172 63.0273 48.1172C62.7188 48.1172 62.4336 48.0742 62.1719 47.9883C61.9141 47.8984 61.6914 47.7598 61.5039 47.5723C61.3203 47.3809 61.1758 47.1367 61.0703 46.8398C60.9688 46.5391 60.918 46.1777 60.918 45.7559V41.6602H62.6055V45.7676C62.6055 45.9551 62.627 46.1133 62.6699 46.2422C62.7168 46.3711 62.7812 46.4766 62.8633 46.5586C62.9453 46.6406 63.041 46.6992 63.1504 46.7344C63.2637 46.7695 63.3887 46.7871 63.5254 46.7871C63.873 46.7871 64.1465 46.7168 64.3457 46.5762C64.5488 46.4355 64.6914 46.2441 64.7734 46.002C64.8594 45.7559 64.9023 45.4824 64.9023 45.1816ZM71.1191 46.248C71.1191 46.127 71.084 46.0176 71.0137 45.9199C70.9434 45.8223 70.8125 45.7324 70.6211 45.6504C70.4336 45.5645 70.1621 45.4863 69.8066 45.416C69.4863 45.3457 69.1875 45.2578 68.9102 45.1523C68.6367 45.043 68.3984 44.9121 68.1953 44.7598C67.9961 44.6074 67.8398 44.4277 67.7266 44.2207C67.6133 44.0098 67.5566 43.7695 67.5566 43.5C67.5566 43.2344 67.6133 42.9844 67.7266 42.75C67.8438 42.5156 68.0098 42.3086 68.2246 42.1289C68.4434 41.9453 68.709 41.8027 69.0215 41.7012C69.3379 41.5957 69.6934 41.543 70.0879 41.543C70.6387 41.543 71.1113 41.6309 71.5059 41.8066C71.9043 41.9824 72.209 42.2246 72.4199 42.5332C72.6348 42.8379 72.7422 43.1855 72.7422 43.5762H71.0547C71.0547 43.4121 71.0195 43.2656 70.9492 43.1367C70.8828 43.0039 70.7773 42.9004 70.6328 42.8262C70.4922 42.748 70.3086 42.709 70.082 42.709C69.8945 42.709 69.7324 42.7422 69.5957 42.8086C69.459 42.8711 69.3535 42.957 69.2793 43.0664C69.209 43.1719 69.1738 43.2891 69.1738 43.418C69.1738 43.5156 69.1934 43.6035 69.2324 43.6816C69.2754 43.7559 69.3438 43.8242 69.4375 43.8867C69.5312 43.9492 69.6523 44.0078 69.8008 44.0625C69.9531 44.1133 70.1406 44.1602 70.3633 44.2031C70.8203 44.2969 71.2285 44.4199 71.5879 44.5723C71.9473 44.7207 72.2324 44.9238 72.4434 45.1816C72.6543 45.4355 72.7598 45.7695 72.7598 46.1836C72.7598 46.4648 72.6973 46.7227 72.5723 46.957C72.4473 47.1914 72.2676 47.3965 72.0332 47.5723C71.7988 47.7441 71.5176 47.8789 71.1895 47.9766C70.8652 48.0703 70.5 48.1172 70.0938 48.1172C69.5039 48.1172 69.0039 48.0117 68.5938 47.8008C68.1875 47.5898 67.8789 47.3223 67.668 46.998C67.4609 46.6699 67.3574 46.334 67.3574 45.9902H68.957C68.9648 46.2207 69.0234 46.4062 69.1328 46.5469C69.2461 46.6875 69.3887 46.7891 69.5605 46.8516C69.7363 46.9141 69.9258 46.9453 70.1289 46.9453C70.3477 46.9453 70.5293 46.916 70.6738 46.8574C70.8184 46.7949 70.9277 46.7129 71.002 46.6113C71.0801 46.5059 71.1191 46.3848 71.1191 46.248ZM76.9609 41.6602V42.8555H73.2695V41.6602H76.9609ZM74.1836 40.0957H75.8711V46.0898C75.8711 46.2734 75.8945 46.4141 75.9414 46.5117C75.9922 46.6094 76.0664 46.6777 76.1641 46.7168C76.2617 46.752 76.3848 46.7695 76.5332 46.7695C76.6387 46.7695 76.7324 46.7656 76.8145 46.7578C76.9004 46.7461 76.9727 46.7344 77.0312 46.7227L77.0371 47.9648C76.8926 48.0117 76.7363 48.0488 76.5684 48.0762C76.4004 48.1035 76.2148 48.1172 76.0117 48.1172C75.6406 48.1172 75.3164 48.0566 75.0391 47.9355C74.7656 47.8105 74.5547 47.6113 74.4062 47.3379C74.2578 47.0645 74.1836 46.7051 74.1836 46.2598V40.0957ZM77.5 44.8945V44.7715C77.5 44.3066 77.5664 43.8789 77.6992 43.4883C77.832 43.0938 78.0254 42.752 78.2793 42.4629C78.5332 42.1738 78.8457 41.9492 79.2168 41.7891C79.5879 41.625 80.0137 41.543 80.4941 41.543C80.9746 41.543 81.4023 41.625 81.7773 41.7891C82.1523 41.9492 82.4668 42.1738 82.7207 42.4629C82.9785 42.752 83.1738 43.0938 83.3066 43.4883C83.4395 43.8789 83.5059 44.3066 83.5059 44.7715V44.8945C83.5059 45.3555 83.4395 45.7832 83.3066 46.1777C83.1738 46.5684 82.9785 46.9102 82.7207 47.2031C82.4668 47.4922 82.1543 47.7168 81.7832 47.877C81.4121 48.0371 80.9863 48.1172 80.5059 48.1172C80.0254 48.1172 79.5977 48.0371 79.2227 47.877C78.8516 47.7168 78.5371 47.4922 78.2793 47.2031C78.0254 46.9102 77.832 46.5684 77.6992 46.1777C77.5664 45.7832 77.5 45.3555 77.5 44.8945ZM79.1875 44.7715V44.8945C79.1875 45.1602 79.2109 45.4082 79.2578 45.6387C79.3047 45.8691 79.3789 46.0723 79.4805 46.248C79.5859 46.4199 79.7227 46.5547 79.8906 46.6523C80.0586 46.75 80.2637 46.7988 80.5059 46.7988C80.7402 46.7988 80.9414 46.75 81.1094 46.6523C81.2773 46.5547 81.4121 46.4199 81.5137 46.248C81.6152 46.0723 81.6895 45.8691 81.7363 45.6387C81.7871 45.4082 81.8125 45.1602 81.8125 44.8945V44.7715C81.8125 44.5137 81.7871 44.2715 81.7363 44.0449C81.6895 43.8145 81.6133 43.6113 81.5078 43.4355C81.4062 43.2559 81.2715 43.1152 81.1035 43.0137C80.9355 42.9121 80.7324 42.8613 80.4941 42.8613C80.2559 42.8613 80.0527 42.9121 79.8848 43.0137C79.7207 43.1152 79.5859 43.2559 79.4805 43.4355C79.3789 43.6113 79.3047 43.8145 79.2578 44.0449C79.2109 44.2715 79.1875 44.5137 79.1875 44.7715ZM86.2305 42.9727V48H84.5371V41.6602H86.125L86.2305 42.9727ZM85.9961 44.6074H85.5273C85.5273 44.166 85.5801 43.7598 85.6855 43.3887C85.7949 43.0137 85.9531 42.6895 86.1602 42.416C86.3711 42.1387 86.6309 41.9238 86.9395 41.7715C87.248 41.6191 87.6055 41.543 88.0117 41.543C88.293 41.543 88.5508 41.5859 88.7852 41.6719C89.0195 41.7539 89.2207 41.8848 89.3887 42.0645C89.5605 42.2402 89.6934 42.4707 89.7871 42.7559C89.8809 43.0371 89.9277 43.375 89.9277 43.7695V48H88.2402V43.957C88.2402 43.668 88.2012 43.4453 88.123 43.2891C88.0449 43.1328 87.9336 43.0234 87.7891 42.9609C87.6484 42.8984 87.4785 42.8672 87.2793 42.8672C87.0605 42.8672 86.8691 42.9121 86.7051 43.002C86.5449 43.0918 86.4121 43.2168 86.3066 43.377C86.2012 43.5332 86.123 43.7168 86.0723 43.9277C86.0215 44.1387 85.9961 44.3652 85.9961 44.6074ZM89.7695 44.4141L89.166 44.4902C89.166 44.0762 89.2168 43.6914 89.3184 43.3359C89.4238 42.9805 89.5781 42.668 89.7812 42.3984C89.9883 42.1289 90.2441 41.9199 90.5488 41.7715C90.8535 41.6191 91.2051 41.543 91.6035 41.543C91.9082 41.543 92.1855 41.5879 92.4355 41.6777C92.6855 41.7637 92.8984 41.9023 93.0742 42.0938C93.2539 42.2812 93.3906 42.5273 93.4844 42.832C93.582 43.1367 93.6309 43.5098 93.6309 43.9512V48H91.9375V43.9512C91.9375 43.6582 91.8984 43.4355 91.8203 43.2832C91.7461 43.127 91.6367 43.0195 91.4922 42.9609C91.3516 42.8984 91.1836 42.8672 90.9883 42.8672C90.7852 42.8672 90.6074 42.9082 90.4551 42.9902C90.3027 43.0684 90.1758 43.1777 90.0742 43.3184C89.9727 43.459 89.8965 43.623 89.8457 43.8105C89.7949 43.9941 89.7695 44.1953 89.7695 44.4141ZM97.8555 48.1172C97.3633 48.1172 96.9219 48.0391 96.5312 47.8828C96.1406 47.7227 95.8086 47.502 95.5352 47.2207C95.2656 46.9395 95.0586 46.6133 94.9141 46.2422C94.7695 45.8672 94.6973 45.4688 94.6973 45.0469V44.8125C94.6973 44.332 94.7656 43.8926 94.9023 43.4941C95.0391 43.0957 95.2344 42.75 95.4883 42.457C95.7461 42.1641 96.0586 41.9395 96.4258 41.7832C96.793 41.623 97.207 41.543 97.668 41.543C98.1172 41.543 98.5156 41.6172 98.8633 41.7656C99.2109 41.9141 99.502 42.125 99.7363 42.3984C99.9746 42.6719 100.154 43 100.275 43.3828C100.396 43.7617 100.457 44.1836 100.457 44.6484V45.3516H95.418V44.2266H98.7988V44.0977C98.7988 43.8633 98.7559 43.6543 98.6699 43.4707C98.5879 43.2832 98.4629 43.1348 98.2949 43.0254C98.127 42.916 97.9121 42.8613 97.6504 42.8613C97.4277 42.8613 97.2363 42.9102 97.0762 43.0078C96.916 43.1055 96.7852 43.2422 96.6836 43.418C96.5859 43.5938 96.5117 43.8008 96.4609 44.0391C96.4141 44.2734 96.3906 44.5312 96.3906 44.8125V45.0469C96.3906 45.3008 96.4258 45.5352 96.4961 45.75C96.5703 45.9648 96.6738 46.1504 96.8066 46.3066C96.9434 46.4629 97.1074 46.584 97.2988 46.6699C97.4941 46.7559 97.7148 46.7988 97.9609 46.7988C98.2656 46.7988 98.5488 46.7402 98.8105 46.623C99.0762 46.502 99.3047 46.3203 99.4961 46.0781L100.316 46.9688C100.184 47.1602 100.002 47.3438 99.7715 47.5195C99.5449 47.6953 99.2715 47.8398 98.9512 47.9531C98.6309 48.0625 98.2656 48.1172 97.8555 48.1172ZM103.105 43.043V48H101.418V41.6602H103.006L103.105 43.043ZM105.016 41.6191L104.986 43.1836C104.904 43.1719 104.805 43.1621 104.688 43.1543C104.574 43.1426 104.471 43.1367 104.377 43.1367C104.139 43.1367 103.932 43.168 103.756 43.2305C103.584 43.2891 103.439 43.377 103.322 43.4941C103.209 43.6113 103.123 43.7539 103.064 43.9219C103.01 44.0898 102.979 44.2812 102.971 44.4961L102.631 44.3906C102.631 43.9805 102.672 43.6035 102.754 43.2598C102.836 42.9121 102.955 42.6094 103.111 42.3516C103.271 42.0938 103.467 41.8945 103.697 41.7539C103.928 41.6133 104.191 41.543 104.488 41.543C104.582 41.543 104.678 41.5508 104.775 41.5664C104.873 41.5781 104.953 41.5957 105.016 41.6191Z" fill="white"/>
</svg>
